M48
;Layer_Color=9474304
;FILE_FORMAT=2:4
INCH,LZ
;TYPE=PLATED
T1F00S00C0.0320
T2F00S00C0.0350
T3F00S00C0.0400
T4F00S00C0.0490
%
T01
X0256Y0081
X0266
X0276
X02805Y0134
X02905
X03085Y01585
X007Y0208
X0013Y012493
X004008Y0086
X004992
X01385Y024458
Y025442
T02
X006455Y0114
X007455
X008455
Y0144
X007455
X006455
X005455
Y0114
X0013Y0133
T03
X0165Y0027
X0232
X03005Y0081
X02765Y0159
X0244Y01765
X0208Y01535
X01835Y01545
X01875Y0239
Y0249
Y0259
X02164Y0234
X0225Y0277
T04
X0031Y011455
Y014545
M30
