G04 Layer_Physical_Order=1*
G04 Layer_Color=255*
%FSLAX24Y24*%
%MOIN*%
G70*
G01*
G75*
%ADD10R,0.1575X0.2756*%
G04:AMPARAMS|DCode=11|XSize=25.6mil|YSize=65mil|CornerRadius=1.9mil|HoleSize=0mil|Usage=FLASHONLY|Rotation=270.000|XOffset=0mil|YOffset=0mil|HoleType=Round|Shape=RoundedRectangle|*
%AMROUNDEDRECTD11*
21,1,0.0256,0.0611,0,0,270.0*
21,1,0.0218,0.0650,0,0,270.0*
1,1,0.0038,-0.0306,-0.0109*
1,1,0.0038,-0.0306,0.0109*
1,1,0.0038,0.0306,0.0109*
1,1,0.0038,0.0306,-0.0109*
%
%ADD11ROUNDEDRECTD11*%
%ADD12R,0.0610X0.0532*%
%ADD13R,0.0591X0.0492*%
%ADD14R,0.0492X0.0591*%
%ADD15R,0.0547X0.0626*%
%ADD16R,0.0532X0.0748*%
%ADD17R,0.0748X0.0532*%
%ADD18R,0.0984X0.0669*%
%ADD19R,0.0532X0.0610*%
%ADD20R,0.0551X0.0413*%
%ADD21R,0.0669X0.0374*%
%ADD22R,0.0256X0.0354*%
G04:AMPARAMS|DCode=23|XSize=25.6mil|YSize=47.2mil|CornerRadius=1.9mil|HoleSize=0mil|Usage=FLASHONLY|Rotation=270.000|XOffset=0mil|YOffset=0mil|HoleType=Round|Shape=RoundedRectangle|*
%AMROUNDEDRECTD23*
21,1,0.0256,0.0434,0,0,270.0*
21,1,0.0218,0.0472,0,0,270.0*
1,1,0.0038,-0.0217,-0.0109*
1,1,0.0038,-0.0217,0.0109*
1,1,0.0038,0.0217,0.0109*
1,1,0.0038,0.0217,-0.0109*
%
%ADD23ROUNDEDRECTD23*%
%ADD24R,0.0374X0.0669*%
%ADD25C,0.0200*%
%ADD26C,0.0500*%
%ADD27C,0.0100*%
%ADD28C,0.0600*%
%ADD29R,0.0630X0.0630*%
%ADD30C,0.0630*%
%ADD31R,0.0512X0.0512*%
%ADD32C,0.0512*%
%ADD33R,0.0512X0.0512*%
%ADD34C,0.0650*%
%ADD35R,0.0650X0.0650*%
%ADD36C,0.0610*%
%ADD37C,0.0591*%
%ADD38R,0.0591X0.0591*%
G36*
X39898Y26352D02*
X29100D01*
X29061Y26344D01*
X29028Y26322D01*
X29006Y26289D01*
X28998Y26250D01*
Y19550D01*
X29006Y19511D01*
X29028Y19478D01*
X29061Y19456D01*
X29100Y19448D01*
X38698D01*
Y13802D01*
X36042D01*
X36024Y13798D01*
X36006Y13795D01*
X35997Y13792D01*
X35994Y13790D01*
X35991Y13790D01*
X35940Y13798D01*
X35604Y14134D01*
Y14650D01*
X35148D01*
Y14095D01*
X35172D01*
Y14074D01*
X35188Y13996D01*
X35232Y13930D01*
X35411Y13751D01*
X35392Y13705D01*
X35148D01*
Y13631D01*
X34759D01*
Y13695D01*
X34704D01*
Y14717D01*
X34995D01*
Y15409D01*
X34205D01*
Y14717D01*
X34296D01*
Y13695D01*
X34067D01*
Y12905D01*
X34759D01*
Y13224D01*
X35148D01*
Y13150D01*
X35592D01*
Y12804D01*
X35596Y12784D01*
Y5384D01*
X33116Y2904D01*
X23554D01*
X23554Y2904D01*
X23489Y2989D01*
X23404Y3054D01*
X23306Y3095D01*
X23200Y3109D01*
X23094Y3095D01*
X22996Y3054D01*
X22911Y2989D01*
X22846Y2904D01*
X22846Y2904D01*
X20609D01*
Y3095D01*
X20404D01*
Y3541D01*
X20605D01*
Y4272D01*
X19795D01*
Y3541D01*
X19996D01*
Y3095D01*
X19917D01*
Y2305D01*
X20609D01*
Y2496D01*
X22846D01*
X22846Y2496D01*
X22911Y2411D01*
X22996Y2346D01*
X23094Y2305D01*
X23200Y2291D01*
X23306Y2305D01*
X23404Y2346D01*
X23489Y2411D01*
X23554Y2496D01*
X23554Y2496D01*
X33200D01*
X33278Y2512D01*
X33344Y2556D01*
X35944Y5156D01*
X35988Y5222D01*
X36004Y5300D01*
Y12800D01*
X36000Y12820D01*
Y12898D01*
X37046D01*
Y4834D01*
X34016Y1804D01*
X15584D01*
X14703Y2686D01*
Y3162D01*
X14753Y3167D01*
X14762Y3122D01*
X14806Y3056D01*
X15306Y2556D01*
X15372Y2512D01*
X15450Y2496D01*
X16146D01*
X16146Y2496D01*
X16211Y2411D01*
X16296Y2346D01*
X16394Y2305D01*
X16500Y2291D01*
X16606Y2305D01*
X16704Y2346D01*
X16789Y2411D01*
X16854Y2496D01*
X16854Y2496D01*
X17291D01*
Y2305D01*
X17983D01*
Y3095D01*
X17291D01*
Y2904D01*
X16854D01*
X16854Y2904D01*
X16789Y2989D01*
X16704Y3054D01*
X16606Y3095D01*
X16500Y3109D01*
X16394Y3095D01*
X16296Y3054D01*
X16211Y2989D01*
X16146Y2904D01*
X16146Y2904D01*
X15534D01*
X15154Y3284D01*
Y6666D01*
X15243Y6755D01*
X15289Y6730D01*
X15285Y6709D01*
Y6491D01*
X15294Y6445D01*
X15321Y6405D01*
X15360Y6379D01*
X15407Y6370D01*
X16018D01*
X16064Y6379D01*
X16090Y6396D01*
X16695D01*
Y6228D01*
X17505D01*
Y6959D01*
X17304D01*
Y7850D01*
X17288Y7928D01*
X17244Y7994D01*
X16444Y8794D01*
X16378Y8838D01*
X16300Y8854D01*
X15509D01*
Y9045D01*
X14817D01*
Y8255D01*
X14959D01*
Y8148D01*
X14116Y7304D01*
X13866D01*
X13840Y7321D01*
X13822Y7325D01*
Y7375D01*
X13840Y7379D01*
X13879Y7405D01*
X13906Y7445D01*
X13915Y7491D01*
Y7709D01*
X13906Y7755D01*
X13879Y7795D01*
X13840Y7821D01*
X13793Y7830D01*
X13182D01*
X13136Y7821D01*
X13096Y7795D01*
X13070Y7755D01*
X13061Y7709D01*
Y7491D01*
X13070Y7445D01*
X13096Y7405D01*
X13136Y7379D01*
X13153Y7375D01*
Y7325D01*
X13136Y7321D01*
X13096Y7295D01*
X13070Y7255D01*
X13061Y7209D01*
Y6991D01*
X13070Y6945D01*
X13096Y6905D01*
X13136Y6879D01*
X13153Y6875D01*
Y6825D01*
X13136Y6821D01*
X13110Y6804D01*
X12445D01*
Y7059D01*
X12254D01*
Y7366D01*
X13334Y8446D01*
X13991D01*
Y8255D01*
X14683D01*
Y9045D01*
X13991D01*
Y8854D01*
X13250D01*
X13172Y8838D01*
X13106Y8794D01*
X11906Y7594D01*
X11862Y7528D01*
X11846Y7450D01*
Y7059D01*
X11655D01*
Y6367D01*
X12445D01*
Y6396D01*
X13110D01*
X13136Y6379D01*
X13153Y6375D01*
Y6325D01*
X13136Y6321D01*
X13096Y6295D01*
X13070Y6255D01*
X13070Y6253D01*
X13056Y6244D01*
X12966Y6154D01*
X12445D01*
Y6233D01*
X12089D01*
X12050Y6241D01*
X12011Y6233D01*
X11655D01*
Y5541D01*
X12445D01*
Y5746D01*
X13050D01*
X13128Y5762D01*
X13194Y5806D01*
X13258Y5870D01*
X13793D01*
X13840Y5879D01*
X13866Y5896D01*
X14295D01*
Y5285D01*
X14212D01*
Y4415D01*
X14295D01*
Y4285D01*
X14212D01*
Y3415D01*
X14295D01*
Y2601D01*
X14310Y2523D01*
X14355Y2457D01*
X15356Y1456D01*
X15422Y1412D01*
X15500Y1396D01*
X34100D01*
X34178Y1412D01*
X34244Y1456D01*
X37394Y4606D01*
X37438Y4672D01*
X37454Y4750D01*
Y12898D01*
X39898D01*
Y102D01*
X102D01*
Y29898D01*
X39898D01*
Y26352D01*
D02*
G37*
G36*
Y19550D02*
Y13000D01*
X36000D01*
Y13654D01*
X36013Y13676D01*
X36033Y13697D01*
X36042Y13700D01*
X38800D01*
Y19550D01*
X29100D01*
Y26250D01*
X39898D01*
Y19550D01*
D02*
G37*
%LPC*%
G36*
X5800Y16413D02*
X5052D01*
Y15587D01*
X5196D01*
Y14749D01*
X3475D01*
X3471Y14760D01*
X3403Y14848D01*
X3314Y14916D01*
X3211Y14959D01*
X3100Y14974D01*
X2989Y14959D01*
X2886Y14916D01*
X2797Y14848D01*
X2729Y14760D01*
X2686Y14656D01*
X2672Y14545D01*
X2686Y14434D01*
X2729Y14331D01*
X2797Y14242D01*
X2886Y14174D01*
X2989Y14131D01*
X3100Y14117D01*
X3211Y14131D01*
X3314Y14174D01*
X3403Y14242D01*
X3471Y14331D01*
X3475Y14341D01*
X5064D01*
X5070Y14297D01*
X5109Y14201D01*
X5173Y14118D01*
X5255Y14055D01*
X5352Y14015D01*
X5455Y14001D01*
X5558Y14015D01*
X5654Y14055D01*
X5737Y14118D01*
X5800Y14201D01*
X5840Y14297D01*
X5853Y14400D01*
X5840Y14503D01*
X5800Y14599D01*
X5737Y14682D01*
X5654Y14745D01*
X5604Y14766D01*
Y15587D01*
X5800D01*
Y16413D01*
D02*
G37*
G36*
X33959Y16245D02*
X33267D01*
Y15455D01*
X33959D01*
Y15709D01*
X34205D01*
Y15543D01*
X34995D01*
Y15709D01*
X35102D01*
X35920Y14892D01*
Y14650D01*
X35896D01*
Y14095D01*
X36352D01*
Y14650D01*
X36328D01*
Y14976D01*
X36328Y14976D01*
X36312Y15054D01*
X36268Y15120D01*
X35331Y16058D01*
X35265Y16102D01*
X35187Y16117D01*
X34995D01*
Y16235D01*
X34205D01*
Y16117D01*
X33959D01*
Y16245D01*
D02*
G37*
G36*
X26600Y8503D02*
X26496Y8490D01*
X26398Y8449D01*
X26315Y8385D01*
X26251Y8302D01*
X26210Y8204D01*
X26197Y8100D01*
X26210Y7996D01*
X26251Y7898D01*
X26315Y7815D01*
X26398Y7751D01*
X26496Y7710D01*
X26600Y7697D01*
X26704Y7710D01*
X26802Y7751D01*
X26885Y7815D01*
X26949Y7898D01*
X26990Y7996D01*
X27003Y8100D01*
X26990Y8204D01*
X26949Y8302D01*
X26885Y8385D01*
X26802Y8449D01*
X26704Y8490D01*
X26600Y8503D01*
D02*
G37*
G36*
X18805Y4272D02*
X17995D01*
Y3541D01*
X18196D01*
Y3095D01*
X18117D01*
Y2305D01*
X18809D01*
Y2496D01*
X19091D01*
Y2305D01*
X19783D01*
Y3095D01*
X19091D01*
Y2904D01*
X18809D01*
Y3095D01*
X18604D01*
Y3541D01*
X18805D01*
Y4272D01*
D02*
G37*
G36*
X16133Y17745D02*
X15441D01*
Y16955D01*
X15583D01*
Y15271D01*
X13466Y13154D01*
X6509D01*
X6431Y13138D01*
X6365Y13094D01*
X5311Y12039D01*
X5266Y11973D01*
X5251Y11895D01*
Y11795D01*
X5059D01*
Y11604D01*
X3525D01*
Y11880D01*
X2675D01*
Y11030D01*
X2896D01*
Y9508D01*
X2912Y9430D01*
X2956Y9364D01*
X3657Y8662D01*
X3649Y8600D01*
X3661Y8507D01*
X3697Y8421D01*
X3754Y8346D01*
X3828Y8289D01*
X3915Y8253D01*
X4008Y8241D01*
X4101Y8253D01*
X4187Y8289D01*
X4262Y8346D01*
X4319Y8421D01*
X4355Y8507D01*
X4367Y8600D01*
X4355Y8693D01*
X4319Y8779D01*
X4262Y8854D01*
X4187Y8911D01*
X4101Y8947D01*
X4008Y8959D01*
X3945Y8951D01*
X3304Y9592D01*
Y11030D01*
X3525D01*
Y11196D01*
X5059D01*
Y11005D01*
X5850D01*
Y11795D01*
X5714D01*
X5693Y11845D01*
X6594Y12746D01*
X13466D01*
X15718Y10493D01*
X15718Y10493D01*
X15785Y10449D01*
X15863Y10433D01*
X18845D01*
Y10272D01*
X19655D01*
Y11003D01*
X19454D01*
Y11116D01*
X20034Y11696D01*
X20460D01*
X20486Y11679D01*
X20532Y11670D01*
X21143D01*
X21190Y11679D01*
X21229Y11705D01*
X21256Y11745D01*
X21265Y11791D01*
Y12009D01*
X21256Y12055D01*
X21229Y12095D01*
X21190Y12121D01*
X21143Y12130D01*
X20532D01*
X20486Y12121D01*
X20460Y12104D01*
X19950D01*
X19872Y12088D01*
X19806Y12044D01*
X19806Y12044D01*
X19106Y11344D01*
X19062Y11278D01*
X19046Y11200D01*
Y11003D01*
X18845D01*
Y10841D01*
X15947D01*
X13838Y12950D01*
X15931Y15042D01*
X15975Y15109D01*
X15991Y15187D01*
Y16955D01*
X16133D01*
Y17745D01*
D02*
G37*
G36*
X8050Y12604D02*
X6800D01*
X6722Y12588D01*
X6656Y12544D01*
X6306Y12194D01*
X6262Y12128D01*
X6246Y12050D01*
X6251Y12026D01*
Y11742D01*
X6173Y11682D01*
X6109Y11599D01*
X6070Y11503D01*
X6056Y11400D01*
X6070Y11297D01*
X6109Y11201D01*
X6173Y11118D01*
X6255Y11055D01*
X6302Y11035D01*
Y10405D01*
X6141D01*
Y9595D01*
X6872D01*
Y10405D01*
X6710D01*
Y11098D01*
X6737Y11118D01*
X6800Y11201D01*
X6840Y11297D01*
X6853Y11400D01*
X6840Y11503D01*
X6800Y11599D01*
X6737Y11682D01*
X6659Y11742D01*
Y11970D01*
X6884Y12196D01*
X7966D01*
X8251Y11911D01*
Y11742D01*
X8173Y11682D01*
X8109Y11599D01*
X8070Y11503D01*
X8056Y11400D01*
X8070Y11297D01*
X8109Y11201D01*
X8173Y11118D01*
X8255Y11055D01*
X8352Y11015D01*
X8455Y11001D01*
X8558Y11015D01*
X8654Y11055D01*
X8737Y11118D01*
X8800Y11201D01*
X8840Y11297D01*
X8853Y11400D01*
X8840Y11503D01*
X8800Y11599D01*
X8737Y11682D01*
X8659Y11742D01*
Y11995D01*
X8643Y12073D01*
X8599Y12139D01*
X8194Y12544D01*
X8128Y12588D01*
X8050Y12604D01*
D02*
G37*
G36*
X27037Y23128D02*
X25263D01*
Y22053D01*
X23226D01*
Y22174D01*
X22494D01*
Y21226D01*
X22627D01*
Y19954D01*
X22614D01*
X22567Y19945D01*
X22528Y19919D01*
X22501Y19879D01*
X22492Y19833D01*
Y19615D01*
X22501Y19569D01*
X22528Y19529D01*
X22567Y19503D01*
X22614Y19494D01*
X23048D01*
X23094Y19503D01*
X23134Y19529D01*
X23160Y19569D01*
X23169Y19615D01*
Y19833D01*
X23160Y19879D01*
X23134Y19919D01*
X23094Y19945D01*
X23048Y19954D01*
X23035D01*
Y21226D01*
X23226D01*
Y21347D01*
X25263D01*
Y20172D01*
X27037D01*
Y23128D01*
D02*
G37*
G36*
X18750Y25319D02*
X18642Y25304D01*
X18541Y25262D01*
X18454Y25196D01*
X18388Y25109D01*
X18346Y25008D01*
X18331Y24900D01*
X18346Y24792D01*
X18388Y24691D01*
X18454Y24604D01*
X18541Y24538D01*
X18642Y24496D01*
X18750Y24481D01*
X18858Y24496D01*
X18959Y24538D01*
X19046Y24604D01*
X19112Y24691D01*
X19135Y24746D01*
X20166D01*
X21295Y23616D01*
X21286Y23604D01*
X21245Y23506D01*
X21231Y23400D01*
X21245Y23294D01*
X21286Y23196D01*
X21351Y23111D01*
X21435Y23046D01*
X21465Y23034D01*
Y22174D01*
X21274D01*
Y22103D01*
X16530D01*
Y22185D01*
X15404D01*
Y24800D01*
X15388Y24878D01*
X15344Y24944D01*
X15194Y25094D01*
X15128Y25138D01*
X15050Y25154D01*
X6050D01*
X5972Y25138D01*
X5906Y25094D01*
X5306Y24494D01*
X5262Y24428D01*
X5246Y24350D01*
Y19800D01*
X5262Y19722D01*
X5306Y19656D01*
X6251Y18711D01*
Y14742D01*
X6173Y14682D01*
X6109Y14599D01*
X6070Y14503D01*
X6056Y14400D01*
X6069Y14303D01*
X5270Y13504D01*
X1648D01*
X1585Y13585D01*
X1502Y13649D01*
X1404Y13690D01*
X1300Y13703D01*
X1196Y13690D01*
X1098Y13649D01*
X1015Y13585D01*
X951Y13502D01*
X910Y13404D01*
X897Y13300D01*
X910Y13196D01*
X951Y13098D01*
X1015Y13015D01*
X1098Y12951D01*
X1196Y12910D01*
X1300Y12897D01*
X1404Y12910D01*
X1502Y12951D01*
X1585Y13015D01*
X1648Y13096D01*
X5355D01*
X5433Y13112D01*
X5499Y13156D01*
X6357Y14014D01*
X6455Y14001D01*
X6558Y14015D01*
X6654Y14055D01*
X6737Y14118D01*
X6796Y14196D01*
X7113D01*
X7173Y14118D01*
X7255Y14055D01*
X7352Y14015D01*
X7455Y14001D01*
X7558Y14015D01*
X7654Y14055D01*
X7737Y14118D01*
X7800Y14201D01*
X7840Y14297D01*
X7853Y14400D01*
X7840Y14503D01*
X7800Y14599D01*
X7737Y14682D01*
X7659Y14742D01*
Y15595D01*
X7972D01*
Y16405D01*
X7241D01*
Y15595D01*
X7251D01*
Y14742D01*
X7173Y14682D01*
X7113Y14604D01*
X6796D01*
X6737Y14682D01*
X6659Y14742D01*
Y18795D01*
X6643Y18873D01*
X6599Y18939D01*
X5654Y19884D01*
Y24266D01*
X6134Y24746D01*
X6216D01*
X6220Y24696D01*
X6211Y24694D01*
X6178Y24672D01*
X6156Y24639D01*
X6148Y24600D01*
Y20200D01*
X6156Y20161D01*
X6178Y20128D01*
X6211Y20106D01*
X6250Y20098D01*
X14590Y20098D01*
X14600Y20096D01*
X17066D01*
X17996Y19166D01*
Y18559D01*
X17805D01*
Y17867D01*
X18595D01*
Y18559D01*
X18404D01*
Y19250D01*
X18388Y19328D01*
X18344Y19394D01*
X17294Y20444D01*
X17228Y20488D01*
X17150Y20504D01*
X15052D01*
Y20839D01*
X15102Y20860D01*
X15306Y20656D01*
X15372Y20612D01*
X15450Y20596D01*
X17416D01*
X19180Y18832D01*
X19246Y18788D01*
X19324Y18772D01*
X20902D01*
Y18255D01*
X20741D01*
Y17445D01*
X20953D01*
Y17094D01*
X20965Y17035D01*
X20998Y16986D01*
X22197Y15787D01*
Y14845D01*
X21591D01*
Y14055D01*
X21696D01*
X21716Y14005D01*
X21316Y13604D01*
X21216D01*
X21190Y13621D01*
X21143Y13630D01*
X21042D01*
Y15025D01*
X21089Y15061D01*
X21154Y15146D01*
X21195Y15244D01*
X21209Y15350D01*
X21195Y15456D01*
X21154Y15554D01*
X21089Y15639D01*
X21004Y15704D01*
X20906Y15745D01*
X20800Y15759D01*
X20694Y15745D01*
X20596Y15704D01*
X20511Y15639D01*
X20446Y15554D01*
X20405Y15456D01*
X20391Y15350D01*
X20405Y15244D01*
X20446Y15146D01*
X20511Y15061D01*
X20596Y14996D01*
X20634Y14980D01*
Y13630D01*
X20532D01*
X20486Y13621D01*
X20460Y13604D01*
X20434D01*
X20094Y13944D01*
X20028Y13988D01*
X19950Y14004D01*
X19545D01*
Y14159D01*
X18755D01*
Y14004D01*
X18255D01*
Y14159D01*
X17445D01*
Y13428D01*
X18255D01*
Y13596D01*
X18755D01*
Y13467D01*
X19545D01*
Y13596D01*
X19866D01*
X20206Y13256D01*
X20272Y13212D01*
X20350Y13196D01*
X20460D01*
X20486Y13179D01*
X20503Y13175D01*
Y13125D01*
X20486Y13121D01*
X20460Y13104D01*
X19545D01*
Y13333D01*
X18755D01*
Y13104D01*
X18255D01*
Y13372D01*
X17445D01*
Y13214D01*
X17395Y13194D01*
X17004Y13584D01*
Y14291D01*
X17195D01*
Y14983D01*
X16405D01*
Y14291D01*
X16596D01*
Y13500D01*
X16612Y13422D01*
X16656Y13356D01*
X17206Y12806D01*
X17206Y12806D01*
X17272Y12762D01*
X17350Y12746D01*
X17445D01*
Y12641D01*
X17702D01*
Y12255D01*
X17491D01*
Y11445D01*
X18222D01*
Y12255D01*
X18110D01*
Y12641D01*
X18255D01*
Y12696D01*
X18755D01*
Y12641D01*
X19545D01*
Y12696D01*
X20460D01*
X20486Y12679D01*
X20532Y12670D01*
X21143D01*
X21190Y12679D01*
X21229Y12705D01*
X21256Y12745D01*
X21265Y12791D01*
Y13009D01*
X21256Y13055D01*
X21229Y13095D01*
X21190Y13121D01*
X21172Y13125D01*
Y13175D01*
X21190Y13179D01*
X21216Y13196D01*
X21400D01*
X21478Y13212D01*
X21544Y13256D01*
X22081Y13792D01*
X22125Y13859D01*
X22141Y13937D01*
Y14055D01*
X22197D01*
Y13535D01*
X21592Y12931D01*
X21548Y12865D01*
X21533Y12787D01*
Y11145D01*
X21391D01*
Y10355D01*
X21533D01*
Y9955D01*
X21378D01*
Y9145D01*
X22109D01*
Y9955D01*
X21941D01*
Y10355D01*
X22083D01*
Y11145D01*
X21941D01*
Y12702D01*
X22434Y13196D01*
X22684D01*
X22710Y13179D01*
X22728Y13175D01*
Y13125D01*
X22710Y13121D01*
X22671Y13095D01*
X22644Y13055D01*
X22635Y13009D01*
Y12791D01*
X22644Y12745D01*
X22671Y12705D01*
X22710Y12679D01*
X22728Y12675D01*
Y12625D01*
X22710Y12621D01*
X22671Y12595D01*
X22644Y12555D01*
X22635Y12509D01*
Y12291D01*
X22644Y12245D01*
X22671Y12205D01*
X22710Y12179D01*
X22728Y12175D01*
Y12125D01*
X22710Y12121D01*
X22671Y12095D01*
X22644Y12055D01*
X22639Y12027D01*
X22419Y11808D01*
X22375Y11741D01*
X22359Y11663D01*
Y11145D01*
X22217D01*
Y10355D01*
X22909D01*
Y11145D01*
X22767D01*
Y11579D01*
X22858Y11670D01*
X23368D01*
X23414Y11679D01*
X23440Y11696D01*
X23466D01*
X23546Y11616D01*
Y11209D01*
X23455D01*
Y10517D01*
X24245D01*
Y10640D01*
X24795D01*
Y10478D01*
X25605D01*
Y10640D01*
X27391D01*
Y10505D01*
X27533D01*
Y8495D01*
X27496Y8490D01*
X27398Y8449D01*
X27315Y8385D01*
X27251Y8302D01*
X27210Y8204D01*
X27197Y8100D01*
X27210Y7996D01*
X27251Y7898D01*
X27315Y7815D01*
X27398Y7751D01*
X27496Y7710D01*
X27600Y7697D01*
X27704Y7710D01*
X27802Y7751D01*
X27885Y7815D01*
X27948Y7896D01*
X29696D01*
X29696Y7896D01*
X29761Y7811D01*
X29846Y7746D01*
X29944Y7705D01*
X30050Y7691D01*
X30156Y7705D01*
X30254Y7746D01*
X30339Y7811D01*
X30404Y7896D01*
X30445Y7994D01*
X30459Y8100D01*
X30445Y8206D01*
X30404Y8304D01*
X30339Y8389D01*
X30254Y8454D01*
X30156Y8495D01*
X30050Y8509D01*
X29944Y8495D01*
X29846Y8454D01*
X29761Y8389D01*
X29696Y8304D01*
X29696Y8304D01*
X27948D01*
X27941Y8313D01*
Y10505D01*
X28083D01*
Y11295D01*
X27391D01*
Y11048D01*
X25605D01*
Y11209D01*
X24795D01*
Y11048D01*
X24245D01*
Y11209D01*
X23954D01*
Y11700D01*
X23938Y11778D01*
X23923Y11800D01*
X23946Y11838D01*
X23953Y11846D01*
X24505D01*
Y11741D01*
X25295D01*
Y11846D01*
X25795D01*
Y11741D01*
X26605D01*
Y11846D01*
X27391D01*
Y11755D01*
X28083D01*
Y12545D01*
X27391D01*
Y12254D01*
X26605D01*
Y12472D01*
X25795D01*
Y12254D01*
X25295D01*
Y12433D01*
X24505D01*
Y12254D01*
X24034D01*
X23744Y12544D01*
X23678Y12588D01*
X23600Y12604D01*
X23440D01*
X23414Y12621D01*
X23397Y12625D01*
Y12675D01*
X23414Y12679D01*
X23440Y12696D01*
X24505D01*
Y12567D01*
X25295D01*
Y12696D01*
X25795D01*
Y12528D01*
X26605D01*
Y12696D01*
X27000D01*
X27078Y12712D01*
X27144Y12756D01*
X27534Y13146D01*
X27741D01*
X27765Y13115D01*
X27848Y13051D01*
X27946Y13010D01*
X28050Y12997D01*
X28154Y13010D01*
X28252Y13051D01*
X28296Y13085D01*
X28346Y13060D01*
Y12545D01*
X28217D01*
Y11755D01*
X28359D01*
Y11295D01*
X28217D01*
Y10505D01*
X28909D01*
Y11295D01*
X28767D01*
Y11755D01*
X28909D01*
Y12545D01*
X28754D01*
Y13060D01*
X28804Y13085D01*
X28848Y13051D01*
X28946Y13010D01*
X29050Y12997D01*
X29154Y13010D01*
X29252Y13051D01*
X29311Y13096D01*
X32105D01*
Y12891D01*
X32895D01*
Y13096D01*
X33241D01*
Y12905D01*
X33933D01*
Y13695D01*
X33241D01*
Y13504D01*
X32895D01*
Y13583D01*
X32105D01*
Y13504D01*
X29440D01*
X29440Y13504D01*
X29399Y13602D01*
X29335Y13685D01*
X29252Y13749D01*
X29154Y13790D01*
X29050Y13803D01*
X28946Y13790D01*
X28848Y13749D01*
X28804Y13715D01*
X28754Y13740D01*
Y14095D01*
X28909D01*
Y14905D01*
X28178D01*
Y14095D01*
X28346D01*
Y13740D01*
X28296Y13715D01*
X28252Y13749D01*
X28154Y13790D01*
X28050Y13803D01*
X27946Y13790D01*
X27848Y13749D01*
X27765Y13685D01*
X27701Y13602D01*
X27681Y13554D01*
X27450D01*
X27372Y13538D01*
X27306Y13494D01*
X26916Y13104D01*
X26605D01*
Y13259D01*
X25795D01*
Y13104D01*
X25295D01*
Y13259D01*
X24505D01*
Y13104D01*
X23440D01*
X23414Y13121D01*
X23397Y13125D01*
Y13175D01*
X23414Y13179D01*
X23454Y13205D01*
X23480Y13245D01*
X23489Y13291D01*
Y13509D01*
X23480Y13555D01*
X23454Y13595D01*
X23414Y13621D01*
X23368Y13630D01*
X22757D01*
X22710Y13621D01*
X22684Y13604D01*
X22503D01*
Y14055D01*
X23109D01*
Y14246D01*
X27391D01*
Y14095D01*
X28122D01*
Y14905D01*
X27860D01*
Y15551D01*
X27939Y15611D01*
X28004Y15696D01*
X28045Y15794D01*
X28059Y15900D01*
X28045Y16006D01*
X28004Y16104D01*
X27939Y16189D01*
X27854Y16254D01*
X27756Y16295D01*
X27650Y16309D01*
X27544Y16295D01*
X27446Y16254D01*
X27361Y16189D01*
X27296Y16104D01*
X27255Y16006D01*
X27241Y15900D01*
X27255Y15794D01*
X27296Y15696D01*
X27361Y15611D01*
X27446Y15546D01*
X27452Y15543D01*
Y14905D01*
X27391D01*
Y14654D01*
X26054D01*
Y14969D01*
X26067Y15037D01*
X26111Y15055D01*
X26209D01*
Y15845D01*
X26067D01*
Y16191D01*
X26205D01*
Y16922D01*
X25395D01*
Y16191D01*
X25659D01*
Y15845D01*
X25517D01*
Y15055D01*
X25642D01*
X25646Y15050D01*
Y14654D01*
X23109D01*
Y14845D01*
X22503D01*
Y15850D01*
X22491Y15909D01*
X22458Y15958D01*
X21259Y17157D01*
Y17445D01*
X21472D01*
Y18255D01*
X21310D01*
Y18772D01*
X21380D01*
X21406Y18755D01*
X21452Y18746D01*
X21886D01*
X21933Y18755D01*
X21972Y18781D01*
X21999Y18821D01*
X22008Y18867D01*
Y19085D01*
X21999Y19131D01*
X21972Y19171D01*
X21933Y19197D01*
X21886Y19206D01*
X21452D01*
X21406Y19197D01*
X21380Y19180D01*
X19408D01*
X17644Y20944D01*
X17578Y20988D01*
X17500Y21004D01*
X15534D01*
X15404Y21134D01*
Y21315D01*
X16530D01*
Y21397D01*
X21274D01*
Y21226D01*
X21465D01*
Y19954D01*
X21452D01*
X21406Y19945D01*
X21366Y19919D01*
X21340Y19879D01*
X21331Y19833D01*
Y19615D01*
X21340Y19569D01*
X21366Y19529D01*
X21406Y19503D01*
X21452Y19494D01*
X21886D01*
X21933Y19503D01*
X21972Y19529D01*
X21999Y19569D01*
X22008Y19615D01*
Y19833D01*
X21999Y19879D01*
X21972Y19919D01*
X21933Y19945D01*
X21886Y19954D01*
X21873D01*
Y21226D01*
X22006D01*
Y22174D01*
X21873D01*
Y23068D01*
X21929Y23111D01*
X21994Y23196D01*
X22034Y23294D01*
X22048Y23400D01*
X22034Y23506D01*
X21994Y23604D01*
X21929Y23689D01*
X21844Y23754D01*
X21746Y23795D01*
X21686Y23803D01*
X20394Y25094D01*
X20328Y25138D01*
X20250Y25154D01*
X19078D01*
X19046Y25196D01*
X18959Y25262D01*
X18858Y25304D01*
X18750Y25319D01*
D02*
G37*
G36*
X22500Y28109D02*
X22394Y28095D01*
X22296Y28054D01*
X22211Y27989D01*
X22146Y27904D01*
X22105Y27806D01*
X22091Y27700D01*
X22105Y27594D01*
X22146Y27496D01*
X22211Y27411D01*
X22296Y27346D01*
X22336Y27329D01*
Y26824D01*
X22174D01*
Y26554D01*
X19200D01*
X19122Y26538D01*
X19056Y26494D01*
X18877Y26315D01*
X18335D01*
Y25485D01*
X19165D01*
Y26027D01*
X19284Y26146D01*
X22174D01*
Y25876D01*
X22906D01*
Y26824D01*
X22744D01*
Y27376D01*
X22789Y27411D01*
X22854Y27496D01*
X22895Y27594D01*
X22909Y27700D01*
X22895Y27806D01*
X22854Y27904D01*
X22789Y27989D01*
X22704Y28054D01*
X22606Y28095D01*
X22500Y28109D01*
D02*
G37*
G36*
X16959Y17745D02*
X16267D01*
Y16955D01*
X16509D01*
Y15809D01*
X16405D01*
Y15117D01*
X17195D01*
Y15246D01*
X17996D01*
X17996Y15246D01*
X18061Y15161D01*
X18146Y15096D01*
X18244Y15055D01*
X18350Y15041D01*
X18456Y15055D01*
X18554Y15096D01*
X18639Y15161D01*
X18704Y15246D01*
X18745Y15344D01*
X18759Y15450D01*
X18745Y15556D01*
X18704Y15654D01*
X18639Y15739D01*
X18554Y15804D01*
X18456Y15845D01*
X18350Y15859D01*
X18244Y15845D01*
X18146Y15804D01*
X18061Y15739D01*
X17996Y15654D01*
X17996Y15654D01*
X17195D01*
Y15809D01*
X16917D01*
Y16955D01*
X16959D01*
Y17146D01*
X17805D01*
Y17041D01*
X18595D01*
Y17733D01*
X17805D01*
Y17554D01*
X16959D01*
Y17745D01*
D02*
G37*
G36*
X24400Y18059D02*
X24294Y18045D01*
X24196Y18004D01*
X24111Y17939D01*
X24046Y17854D01*
X24005Y17756D01*
X23991Y17650D01*
X24005Y17544D01*
X24046Y17446D01*
X24111Y17361D01*
X24196Y17296D01*
X24196Y17296D01*
Y16600D01*
X24212Y16522D01*
X24256Y16456D01*
X24816Y15895D01*
X24796Y15845D01*
X24691D01*
Y15680D01*
X23726D01*
Y15783D01*
X22974D01*
Y15169D01*
X23726D01*
Y15272D01*
X24691D01*
Y15055D01*
X25383D01*
Y15845D01*
X25241D01*
Y15963D01*
X25225Y16041D01*
X25181Y16108D01*
X24604Y16684D01*
Y17296D01*
X24604Y17296D01*
X24689Y17361D01*
X24754Y17446D01*
X24795Y17544D01*
X24809Y17650D01*
X24795Y17756D01*
X24754Y17854D01*
X24689Y17939D01*
X24604Y18004D01*
X24506Y18045D01*
X24400Y18059D01*
D02*
G37*
G36*
X24126Y26824D02*
X23394D01*
Y25876D01*
X24126D01*
Y26146D01*
X26016D01*
X27596Y24566D01*
Y18900D01*
X27612Y18822D01*
X27656Y18756D01*
X30460Y15952D01*
X30447Y15850D01*
X30460Y15746D01*
X30501Y15648D01*
X30565Y15565D01*
X30648Y15501D01*
X30746Y15460D01*
X30850Y15447D01*
X30954Y15460D01*
X31052Y15501D01*
X31135Y15565D01*
X31198Y15646D01*
X32441D01*
Y15455D01*
X33133D01*
Y16245D01*
X32441D01*
Y16054D01*
X31198D01*
X31135Y16135D01*
X31052Y16199D01*
X30954Y16240D01*
X30850Y16253D01*
X30748Y16240D01*
X28004Y18984D01*
Y24650D01*
X27988Y24728D01*
X27944Y24794D01*
X26244Y26494D01*
X26178Y26538D01*
X26100Y26554D01*
X24126D01*
Y26824D01*
D02*
G37*
G36*
X23048Y19206D02*
X22614D01*
X22567Y19197D01*
X22528Y19171D01*
X22501Y19131D01*
X22492Y19085D01*
Y18867D01*
X22501Y18821D01*
X22528Y18781D01*
X22567Y18755D01*
X22614Y18746D01*
X22627D01*
Y17669D01*
X22642Y17591D01*
X22687Y17525D01*
X23146Y17066D01*
Y16531D01*
X22974D01*
Y15917D01*
X23726D01*
Y16531D01*
X23554D01*
Y17150D01*
X23538Y17228D01*
X23494Y17294D01*
X23035Y17754D01*
Y18746D01*
X23048D01*
X23094Y18755D01*
X23134Y18781D01*
X23160Y18821D01*
X23169Y18867D01*
Y19085D01*
X23160Y19131D01*
X23134Y19171D01*
X23094Y19197D01*
X23048Y19206D01*
D02*
G37*
%LPD*%
G36*
X14950Y24600D02*
Y20200D01*
X6250Y20200D01*
Y24600D01*
X14950Y24600D01*
D02*
G37*
D10*
X26150Y21650D02*
D03*
X30087D02*
D03*
D11*
X15712Y6100D02*
D03*
Y6600D02*
D03*
Y7100D02*
D03*
Y7600D02*
D03*
X13488Y6100D02*
D03*
Y6600D02*
D03*
Y7100D02*
D03*
Y7600D02*
D03*
X20838Y13400D02*
D03*
Y12900D02*
D03*
Y12400D02*
D03*
Y11900D02*
D03*
X23062Y13400D02*
D03*
Y12900D02*
D03*
Y12400D02*
D03*
Y11900D02*
D03*
D12*
X26200Y12894D02*
D03*
Y12106D02*
D03*
X30950Y25856D02*
D03*
Y26644D02*
D03*
X32650Y25856D02*
D03*
Y26644D02*
D03*
X18400Y4694D02*
D03*
Y3906D02*
D03*
X20200Y4694D02*
D03*
Y3906D02*
D03*
X25200Y10844D02*
D03*
Y10056D02*
D03*
X17850Y13794D02*
D03*
Y13006D02*
D03*
X19250Y10637D02*
D03*
Y9850D02*
D03*
X25800Y16556D02*
D03*
Y17344D02*
D03*
X17100Y6594D02*
D03*
Y5806D02*
D03*
D13*
X32500Y14063D02*
D03*
Y13237D02*
D03*
X24900Y12913D02*
D03*
Y12087D02*
D03*
X23850Y10863D02*
D03*
Y10037D02*
D03*
X19150Y13813D02*
D03*
Y12987D02*
D03*
X18200Y17387D02*
D03*
Y18213D02*
D03*
X34600Y15889D02*
D03*
Y15063D02*
D03*
X16800Y14637D02*
D03*
Y15463D02*
D03*
X12050Y5887D02*
D03*
Y6713D02*
D03*
D14*
X33613Y15850D02*
D03*
X32787D02*
D03*
X22763Y14450D02*
D03*
X21937D02*
D03*
X28563Y10900D02*
D03*
X27737D02*
D03*
X21737Y10750D02*
D03*
X22563D02*
D03*
X27737Y12150D02*
D03*
X28563D02*
D03*
X25863Y15450D02*
D03*
X25037D02*
D03*
X20263Y2700D02*
D03*
X19437D02*
D03*
X34413Y13300D02*
D03*
X33587D02*
D03*
X16613Y17350D02*
D03*
X15787D02*
D03*
X14337Y8650D02*
D03*
X15163D02*
D03*
X18463Y2700D02*
D03*
X17637D02*
D03*
D15*
X4674Y16000D02*
D03*
X5426D02*
D03*
D16*
X23760Y26350D02*
D03*
X22540D02*
D03*
X22860Y21700D02*
D03*
X21640D02*
D03*
D17*
X10000Y24280D02*
D03*
Y25500D02*
D03*
X8500Y24290D02*
D03*
Y25510D02*
D03*
X7000Y24280D02*
D03*
Y25500D02*
D03*
D18*
X15937Y21750D02*
D03*
X14363D02*
D03*
D19*
X8394Y16000D02*
D03*
X7606D02*
D03*
X28544Y14500D02*
D03*
X27756D02*
D03*
X20956Y9550D02*
D03*
X21744D02*
D03*
X18644Y11850D02*
D03*
X17856D02*
D03*
X21894Y17850D02*
D03*
X21106D02*
D03*
X7294Y10000D02*
D03*
X6506D02*
D03*
D20*
X23350Y16224D02*
D03*
Y15476D02*
D03*
D21*
X38350Y13349D02*
D03*
Y14451D02*
D03*
X37250Y13349D02*
D03*
Y14451D02*
D03*
D22*
X36124Y13428D02*
D03*
X35376D02*
D03*
Y14372D02*
D03*
X35750D02*
D03*
X36124D02*
D03*
D23*
X22831Y18976D02*
D03*
Y19350D02*
D03*
Y19724D02*
D03*
X21669D02*
D03*
Y18976D02*
D03*
D24*
X14499Y3850D02*
D03*
X15601D02*
D03*
X14499Y4850D02*
D03*
X15601D02*
D03*
D25*
X12050Y6037D02*
X12137Y5950D01*
X14499Y6100D02*
Y6849D01*
Y4850D02*
Y6100D01*
X13488D02*
X14499D01*
X37250Y4750D02*
Y13349D01*
X34100Y1600D02*
X37250Y4750D01*
Y13349D02*
X38350D01*
X15800Y17263D02*
X15887Y17350D01*
X15787Y15187D02*
Y17350D01*
X13550Y12950D02*
X15787Y15187D01*
X27656Y14450D02*
Y15894D01*
X23770Y10844D02*
X25200D01*
X23750Y10863D02*
Y11700D01*
X33700Y15913D02*
X35187D01*
X28550Y14351D02*
X28621Y14422D01*
X12050Y6600D02*
X13488D01*
X20250Y2687D02*
Y2700D01*
X29150Y13300D02*
X33587D01*
X23062Y12900D02*
X27000D01*
X5400Y14455D02*
Y16003D01*
X17956Y12900D02*
X20838D01*
X17906Y12950D02*
Y13123D01*
X17694Y12950D02*
X17900Y13156D01*
X16727Y15450D02*
X18350D01*
X16713Y15463D02*
Y17350D01*
X34500Y14887D02*
X34650Y15037D01*
X18044Y13800D02*
X19950D01*
X17900Y13944D02*
X18044Y13800D01*
X23950Y12050D02*
X27637D01*
X21690Y23514D02*
X21792Y23468D01*
X21742Y23354D02*
X21792Y23468D01*
X21669Y21700D02*
Y23192D01*
Y19724D02*
Y21700D01*
Y23192D02*
X21742Y23354D01*
X15500Y1600D02*
X34100D01*
X14499Y2601D02*
X15500Y1600D01*
X14499Y2601D02*
Y3850D01*
X15450Y2700D02*
X16500D01*
X14950Y3200D02*
X15450Y2700D01*
X14950Y3200D02*
Y6750D01*
X15300Y7100D01*
X23200Y2700D02*
X33200D01*
X20263D02*
X23200D01*
X16500D02*
X17637D01*
X22540Y27690D02*
X22550Y27700D01*
X22540Y26350D02*
Y27690D01*
X1300Y13300D02*
X5355D01*
X6455Y14400D01*
X35796Y12804D02*
Y13654D01*
X35376Y14074D02*
X35796Y13654D01*
X35376Y14074D02*
Y14372D01*
X34541Y13428D02*
X35376D01*
X35796Y12804D02*
X35800Y12800D01*
Y5300D02*
Y12800D01*
X33200Y2700D02*
X35800Y5300D01*
X35187Y15913D02*
X36124Y14976D01*
Y14372D02*
Y14976D01*
X20250Y2687D02*
X20263Y2700D01*
X17637D02*
X17650Y2687D01*
X13250Y8650D02*
X14337D01*
X12050Y7450D02*
X13250Y8650D01*
X13200Y6100D02*
X13488D01*
X13050Y5950D02*
X13200Y6100D01*
X12137Y5950D02*
X13050D01*
X12050Y6713D02*
Y7450D01*
X20200Y2763D02*
X20263Y2700D01*
X20200Y2763D02*
Y3906D01*
X18400Y2763D02*
X18463Y2700D01*
X18400Y2763D02*
Y3906D01*
X15300Y7100D02*
X15712D01*
X17094Y6600D02*
X17100Y6594D01*
X15712Y6600D02*
X17094D01*
X17100Y6594D02*
Y7850D01*
X16300Y8650D02*
X17100Y7850D01*
X15163Y8650D02*
X16300D01*
X15163Y8063D02*
Y8650D01*
X14200Y7100D02*
X15163Y8063D01*
X13488Y7100D02*
X14200D01*
X15250Y7600D02*
X15712D01*
X14499Y6849D02*
X15250Y7600D01*
X30850Y15850D02*
X32787D01*
X27800Y18900D02*
X30850Y15850D01*
X28544Y14500D02*
X28621Y14422D01*
X28550Y12163D02*
Y14351D01*
Y12163D02*
X28563Y12150D01*
X29050Y13400D02*
X29150Y13300D01*
X34500Y13387D02*
Y14887D01*
X28000Y13350D02*
X28050Y13400D01*
X27450Y13350D02*
X28000D01*
X34500Y13387D02*
X34541Y13428D01*
X34413Y13300D02*
X34500Y13387D01*
X23750Y10863D02*
X23770Y10844D01*
X6506Y10000D02*
Y11348D01*
X6455Y11400D02*
X6506Y11348D01*
X3100Y14545D02*
X5309D01*
X5400Y14455D02*
X5455Y14400D01*
X5309Y14545D02*
X5400Y14455D01*
X3100Y11455D02*
X3155Y11400D01*
X22831Y17669D02*
Y18976D01*
Y17669D02*
X23350Y17150D01*
Y16224D02*
Y17150D01*
Y15476D02*
X25011D01*
X25037Y15450D01*
X27730Y12156D02*
X27737Y12150D01*
X23062Y11900D02*
X23550D01*
X23750Y11700D01*
X16750Y14587D02*
X16800Y14637D01*
X27680Y10844D02*
X27737Y10900D01*
X27600Y8100D02*
X27737Y8237D01*
Y10900D01*
X26050Y21550D02*
X26150Y21650D01*
X15787Y17350D02*
X15887D01*
X8455Y11400D02*
Y11995D01*
X8050Y12400D02*
X8455Y11995D01*
X6800Y12400D02*
X8050D01*
X6450Y12050D02*
X6800Y12400D01*
X6450Y12050D02*
X6455Y12045D01*
Y11400D02*
Y12045D01*
X7455Y14400D02*
Y15848D01*
X7606Y16000D01*
X21694Y9650D02*
X21737Y9693D01*
X18163Y17350D02*
X18200Y17387D01*
X16613Y17350D02*
X16713D01*
X18163D01*
X17150Y20300D02*
X18200Y19250D01*
Y18213D02*
Y19250D01*
X16713Y15463D02*
X16727Y15450D01*
X16713Y15463D02*
X16800D01*
X20800Y15350D02*
X20838Y15312D01*
X25863Y15450D02*
Y16493D01*
X25800Y16556D02*
X25863Y16493D01*
X27650Y15900D02*
X27656Y15894D01*
X25037Y15450D02*
Y15963D01*
X24400Y16600D02*
X25037Y15963D01*
X24400Y16600D02*
Y17650D01*
X23062Y12400D02*
X23600D01*
X23950Y12050D01*
X23760Y26350D02*
X26100D01*
X20350Y13400D02*
X20838D01*
X17906Y13123D02*
X17920Y13137D01*
X28563Y10900D02*
Y12150D01*
X5455Y11400D02*
Y11895D01*
X6509Y12950D01*
X3100Y9508D02*
X4008Y8600D01*
X3100Y9508D02*
Y11455D01*
X3155Y11400D02*
X5455D01*
X6455Y14400D02*
X7455D01*
X18750Y24900D02*
X18800Y24950D01*
X19200Y26350D02*
X22540D01*
X18750Y25900D02*
X19200Y26350D01*
X18463Y2700D02*
X19437D01*
X14350Y21750D02*
X14363D01*
X18800Y24950D02*
X20250D01*
X21683Y23517D01*
X14600Y20300D02*
X17150D01*
X21690Y23514D02*
X21690Y23514D01*
X21690Y23514D02*
X21690Y23514D01*
X21690Y23514D02*
X21690Y23514D01*
X21690Y23514D02*
X21690Y23514D01*
X21683Y23517D02*
X21690Y23514D01*
X21690Y23514D01*
X27637Y12050D02*
X27737Y12150D01*
X25200Y10844D02*
X27680D01*
X21737Y10750D02*
Y12787D01*
X19950Y13800D02*
X20350Y13400D01*
X17900Y13156D02*
X17920Y13137D01*
X16800Y13500D02*
Y14637D01*
Y13500D02*
X17350Y12950D01*
X17694D01*
X17850Y13006D02*
X17906Y12950D01*
X17956Y12900D01*
X17906Y12000D02*
Y12950D01*
X27600Y8100D02*
X30050D01*
X6050Y24950D02*
X15050D01*
X5450Y24350D02*
X6050Y24950D01*
X21106Y17850D02*
Y18882D01*
X21200Y18976D01*
X21669D01*
X25850Y15050D02*
X25863Y15037D01*
Y15450D01*
X25850Y14450D02*
X27656D01*
X25850D02*
Y15050D01*
X20838Y13400D02*
Y15312D01*
X15450Y20800D02*
X17500D01*
X19324Y18976D01*
X21200D01*
X19250Y10637D02*
Y11200D01*
X19950Y11900D01*
X20838D01*
X21640Y21700D02*
X21669D01*
X22831Y21670D02*
X22860Y21700D01*
X22831Y19724D02*
Y21670D01*
X15200Y21050D02*
X15450Y20800D01*
X15200Y21050D02*
Y24800D01*
X15050Y24950D02*
X15200Y24800D01*
X15863Y10637D02*
X19250D01*
X6455Y14400D02*
Y18795D01*
X5450Y19800D02*
X6455Y18795D01*
X5450Y19800D02*
Y24350D01*
X20838Y13400D02*
X21400D01*
X22800Y11900D02*
X23062D01*
X22563Y11663D02*
X22800Y11900D01*
X22563Y10850D02*
Y11663D01*
X21737Y9693D02*
Y10750D01*
Y12787D02*
X22350Y13400D01*
X23062D01*
X22763Y14450D02*
X25850D01*
X21400Y13400D02*
X21937Y13937D01*
Y14450D01*
X6509Y12950D02*
X13550D01*
X15863Y10637D01*
X14499Y3850D02*
Y4850D01*
X36124Y13428D02*
X36203Y13349D01*
X37250D01*
X27800Y18900D02*
Y24650D01*
X26100Y26350D02*
X27800Y24650D01*
X27000Y12900D02*
X27450Y13350D01*
D26*
X15937Y21750D02*
X21440D01*
X22860Y21700D02*
X26100D01*
X26150Y21650D01*
D27*
X22350Y13400D02*
Y15850D01*
X21106Y17094D02*
X22350Y15850D01*
X21106Y17094D02*
Y17850D01*
D28*
X7000Y20800D02*
D03*
X30850Y15850D02*
D03*
X29050Y13400D02*
D03*
X28050D02*
D03*
X25600Y8100D02*
D03*
X26600D02*
D03*
X27600D02*
D03*
X1300Y13300D02*
D03*
Y12493D02*
D03*
D29*
X18750Y25900D02*
D03*
D30*
Y24900D02*
D03*
Y23900D02*
D03*
D31*
X13850Y24458D02*
D03*
D32*
Y25442D02*
D03*
X4008Y8600D02*
D03*
D33*
X4992D02*
D03*
D34*
X3100Y14545D02*
D03*
D35*
Y11455D02*
D03*
D36*
X30050Y8100D02*
D03*
X24400Y17650D02*
D03*
X20800Y15350D02*
D03*
X27650Y15900D02*
D03*
X22500Y27700D02*
D03*
X21640Y23400D02*
D03*
X18350Y15450D02*
D03*
X16500Y2700D02*
D03*
X23200D02*
D03*
D37*
X8455Y14400D02*
D03*
X7455D02*
D03*
X6455D02*
D03*
X5455D02*
D03*
X8455Y11400D02*
D03*
X7455D02*
D03*
X6455D02*
D03*
D38*
X5455D02*
D03*
M02*
